<?xml version="1.0" encoding="UTF-8"?>
<svg version="1.1" xmlns="http://www.w3.org/2000/svg" width="512" height="512">
<path d="M0 0 C1.38134835 -0.00135352 2.76269622 -0.00329969 4.14404297 -0.00579834 C7.01469537 -0.00871743 9.88522183 -0.00455729 12.75585938 0.00488281 C16.39295485 0.01627544 20.0297549 0.00969845 23.6668396 -0.00226212 C26.51198459 -0.00956872 29.35706219 -0.00715298 32.20220947 -0.00200653 C34.18152056 -0.0000671 36.16083452 -0.00602607 38.14013672 -0.01226807 C59.80279105 0.09830615 75.32719796 5.02795486 91.3125 19.890625 C106.65728717 35.77211379 110.45366063 56.28230354 110.37896729 77.65158081 C110.38127747 79.05612064 110.3844577 80.46065926 110.38842177 81.86519539 C110.39670128 85.68747664 110.39267606 89.50965686 110.38644934 93.33193827 C110.38189781 97.46822164 110.38892175 101.60448843 110.39440918 105.74076843 C110.40327474 113.82734112 110.40139427 121.91387655 110.3955839 130.00045066 C110.39105808 136.57235681 110.39045847 143.14425256 110.39263153 149.71615982 C110.392938 150.65322485 110.39324446 151.59028988 110.39356022 152.55575082 C110.39419969 154.45959377 110.39484812 156.3634367 110.3955054 158.26727964 C110.40119989 176.09238699 110.39466367 193.91747372 110.38390467 211.74257769 C110.37496116 227.03347355 110.37652948 242.32433905 110.38574219 257.61523438 C110.39644525 275.38801069 110.40065988 293.160769 110.39451766 310.93354809 C110.39388058 312.82836032 110.39325184 314.72317254 110.39263153 316.61798477 C110.3921687 318.01630511 110.3921687 318.01630511 110.39169653 319.44287433 C110.38997035 326.00906902 110.39288284 332.57525225 110.39759064 339.14144516 C110.40319947 347.13976007 110.40168258 355.13803573 110.39102915 363.13634615 C110.38577385 367.21621251 110.38371343 371.29601341 110.39032745 375.37587929 C110.39629136 379.11115975 110.39300455 382.84631412 110.38237235 386.58158316 C110.37908386 388.57104797 110.38560511 390.56052155 110.39248681 392.54997718 C110.36131844 399.64237209 110.27983241 405.58445297 106.625 411.828125 C84.62154004 433.28149846 41.36312246 432.35239284 12.85839844 432.25439453 C-13.73952292 431.85808142 -49.35682504 431.27341972 -70.875 413.265625 C-75.19234461 408.43259756 -75.99874273 403.8131466 -76.00642776 397.50822067 C-76.01026891 396.32576916 -76.01411005 395.14331766 -76.0180676 393.92503428 C-76.01720112 392.62467715 -76.01633463 391.32432001 -76.01544189 389.98455811 C-76.01802576 388.59007601 -76.02103898 387.19559465 -76.0244453 385.80111432 C-76.03251682 381.96450273 -76.03430496 378.12790984 -76.03504276 374.29129076 C-76.03689319 370.15467864 -76.04444074 366.01807623 -76.05117798 361.88146973 C-76.06476558 352.83133547 -76.07078743 343.78120565 -76.07518864 334.73106289 C-76.07795182 329.07645766 -76.08218946 323.42185414 -76.08669281 317.76725006 C-76.09888885 302.10303734 -76.10918567 286.43882598 -76.1125679 270.77460861 C-76.11278747 269.77178626 -76.11300703 268.76896392 -76.11323325 267.73575301 C-76.11345153 266.73055045 -76.11366981 265.72534788 -76.1138947 264.68968463 C-76.11433816 262.65282361 -76.11478473 260.61596258 -76.11523438 258.57910156 C-76.1154558 257.56875151 -76.11567723 256.55840146 -76.11590537 255.51743475 C-76.11984827 239.1681655 -76.13728523 222.81894097 -76.1605939 206.46968898 C-76.18434643 189.67297899 -76.19677162 172.87629138 -76.19793582 156.07956433 C-76.19885069 146.65357102 -76.204555 137.22763587 -76.22275543 127.80165863 C-76.23820953 119.76970614 -76.24324593 111.73782978 -76.23501733 103.70586523 C-76.23112877 99.61275932 -76.23195166 95.51980644 -76.24607468 91.42671967 C-76.25892311 87.66836115 -76.25752163 83.91026893 -76.24548396 80.15191022 C-76.24263804 78.17164151 -76.25437957 76.19136771 -76.26690602 74.21113658 C-76.1525228 53.14356564 -70.43485272 33.97947406 -55.625 18.515625 C-39.38818146 2.94516016 -21.87667016 -0.06899101 0 0 Z M-37.875 32.265625 C-38.46925781 32.75546875 -39.06351563 33.2453125 -39.67578125 33.75 C-47.11048294 40.40991016 -52.44294861 50.40038206 -53.875 60.265625 C-54.00727035 63.93980126 -53.99657075 67.59148674 -53.875 71.265625 C-47.96991858 74.47787994 -42.41892221 76.41372539 -35.875 77.890625 C-34.49187622 78.20918457 -34.49187622 78.20918457 -33.08081055 78.53417969 C-1.233333 85.65000995 33.77691921 85.19593495 65.6875 78.890625 C66.69095459 78.69380127 67.69440918 78.49697754 68.72827148 78.29418945 C79.17042839 76.37753378 79.17042839 76.37753378 88.125 71.265625 C89.34550177 58.33300053 85.11441853 46.547497 76.8984375 36.55859375 C69.92415577 29.17471135 61.42609556 22.60369548 50.94664001 22.11845398 C49.69186356 22.10860977 48.4370871 22.09876556 47.14428711 22.08862305 C46.1018988 22.07876625 46.1018988 22.07876625 45.03845215 22.06871033 C42.74308142 22.04903513 40.44777613 22.03732424 38.15234375 22.02734375 C36.97037509 22.02123046 36.97037509 22.02123046 35.76452827 22.01499367 C31.58919668 21.99415195 27.4138977 21.97984518 23.23852539 21.97045898 C18.95053097 21.95943196 14.66306082 21.92507009 10.37525082 21.88528728 C7.05755225 21.85898633 3.7399757 21.85075502 0.42218208 21.84717751 C-1.15689042 21.84234188 -2.73595859 21.83081546 -4.31492805 21.81213951 C-17.36657388 21.66742911 -27.79008789 23.40638451 -37.875 32.265625 Z M-53.875 95.265625 C-53.875 114.405625 -53.875 133.545625 -53.875 153.265625 C-43.42578689 157.66612594 -43.42578689 157.66612594 -32.75 160.453125 C-32.04875 160.60458984 -31.3475 160.75605469 -30.625 160.91210938 C-14.95321273 164.09798308 0.81302707 164.64079801 16.75 164.578125 C18.19667557 164.57539078 18.19667557 164.57539078 19.6725769 164.57260132 C42.70382395 164.49941359 67.12790412 163.76417294 88.125 153.265625 C88.125 134.125625 88.125 114.985625 88.125 95.265625 C82.54886064 96.38085287 77.0334101 97.50241475 71.5 98.765625 C66.23575297 99.90549688 61.01152097 100.72787732 55.6640625 101.359375 C54.93421143 101.44799805 54.20436035 101.53662109 53.45239258 101.62792969 C51.6769136 101.84313926 49.90100061 102.05476339 48.125 102.265625 C48.1156543 103.32998779 48.10630859 104.39435059 48.09667969 105.4909668 C48.05671343 109.45167411 47.99093701 113.41161007 47.91748047 117.37182617 C47.88930914 119.0836392 47.86807548 120.79558137 47.85400391 122.50756836 C47.83252035 124.97316419 47.78584584 127.43721361 47.734375 129.90234375 C47.73314636 130.66399338 47.73191772 131.42564301 47.73065186 132.21037292 C47.59525904 137.15660174 46.73370492 139.84096239 43.125 143.265625 C40.31319772 144.20289243 38.55377825 144.40175576 35.64111328 144.42675781 C34.28422897 144.44116913 34.28422897 144.44116913 32.89993286 144.45587158 C31.92490814 144.46012146 30.94988342 144.46437134 29.9453125 144.46875 C28.43794022 144.47730011 28.43794022 144.47730011 26.90011597 144.48602295 C24.77342786 144.49547077 22.64672513 144.50200607 20.52001953 144.50585938 C17.26959667 144.51556648 14.01980574 144.54659285 10.76953125 144.578125 C8.70312875 144.58465506 6.63672174 144.58990552 4.5703125 144.59375 C3.11384811 144.6122702 3.11384811 144.6122702 1.62796021 144.63116455 C-6.9266766 144.60297981 -6.9266766 144.60297981 -10.875 141.265625 C-13.37942112 137.50899332 -13.22385437 134.45554375 -13.2890625 130.09765625 C-13.30842865 129.30284348 -13.3277948 128.5080307 -13.3477478 127.68913269 C-13.40749442 125.15223905 -13.45390883 122.61529991 -13.5 120.078125 C-13.53818435 118.35740216 -13.57723635 116.63669835 -13.6171875 114.91601562 C-13.71319179 110.69937335 -13.79724076 106.4826416 -13.875 102.265625 C-14.7314209 102.12463379 -15.5878418 101.98364258 -16.47021484 101.83837891 C-19.69472536 101.30669392 -22.91897423 100.77347145 -26.14306641 100.23925781 C-27.52968572 100.0098149 -28.91640212 99.78095787 -30.30322266 99.55273438 C-32.31439585 99.22165316 -34.32519222 98.88835657 -36.3359375 98.5546875 C-37.54040527 98.35568848 -38.74487305 98.15668945 -39.98583984 97.95166016 C-44.62964647 97.13250783 -49.25107076 96.19041085 -53.875 95.265625 Z M7.125 104.265625 C7.125 110.535625 7.125 116.805625 7.125 123.265625 C13.725 123.265625 20.325 123.265625 27.125 123.265625 C27.125 116.995625 27.125 110.725625 27.125 104.265625 C20.525 104.265625 13.925 104.265625 7.125 104.265625 Z M-53.875 176.265625 C-53.875 249.855625 -53.875 323.445625 -53.875 399.265625 C-42.9504299 403.55892034 -42.9504299 403.55892034 -31.8125 406.453125 C-31.00345215 406.61329102 -30.1944043 406.77345703 -29.36083984 406.93847656 C8.27433927 414.07455416 52.3859181 413.56125776 88.125 399.265625 C88.125 326.005625 88.125 252.745625 88.125 177.265625 C80.112325 178.71965233 80.112325 178.71965233 72.1171875 180.265625 C31.17845476 188.37688034 -13.72206227 188.31150632 -53.875 176.265625 Z " fill="#000000" transform="translate(238.875,39.734375)"/>
</svg>
